<?xml version="1.0" standalone="no"?>
<!DOCTYPE svg PUBLIC "-//W3C//DTD SVG 20010904//EN"
 "http://www.w3.org/TR/2001/REC-SVG-20010904/DTD/svg10.dtd">
<svg version="1.0" xmlns="http://www.w3.org/2000/svg"
 width="260.000000pt" height="260.000000pt" viewBox="0 0 260.000000 260.000000"
 preserveAspectRatio="xMidYMid meet">
<metadata>
Created by potrace 1.11, written by Peter Selinger 2001-2013
</metadata>
<g transform="translate(0.000000,260.000000) scale(0.100000,-0.100000)"
fill="#000000" stroke="none">
<path d="M1264 2585 c-151 -32 -284 -103 -374 -199 -185 -199 -222 -225 -375
-267 -112 -30 -174 -63 -104 -55 43 4 131 -11 145 -26 18 -19 0 -56 -33 -69
-15 -6 -46 -13 -68 -15 -62 -8 -77 -12 -113 -24 -35 -13 -35 -22 1 -27 89 -13
201 -69 231 -116 15 -22 14 -28 -17 -96 -39 -83 -46 -154 -22 -203 18 -39 80
-86 125 -94 33 -7 56 -42 95 -147 25 -68 47 -79 143 -76 43 1 105 5 138 9 32
5 85 10 116 13 31 3 61 8 66 11 5 3 12 24 16 46 10 61 49 119 90 134 29 10 78
-49 102 -125 15 -48 25 -64 40 -65 38 -3 162 -15 190 -18 16 -2 54 -7 84 -11
116 -16 135 -5 173 101 43 120 45 124 74 135 16 6 52 22 81 36 57 28 55 23 55
143 0 34 -7 70 -18 90 -19 37 -22 109 -9 220 15 130 8 293 -16 354 -10 28 -20
32 -37 15 -8 -8 -18 3 -37 42 -24 52 -119 169 -136 169 -4 0 -11 -11 -14 -25
-6 -24 -6 -24 -69 23 -150 113 -339 156 -523 117z m614 -687 c28 -84 52 -174
55 -201 10 -94 -25 -106 -315 -107 l-178 -2 -20 -38 c-29 -58 -46 -70 -96 -70
-48 0 -71 16 -98 69 -9 16 -24 32 -33 35 -10 3 -94 8 -188 12 -214 8 -223 8
-230 16 -4 3 -9 38 -12 77 l-6 71 44 1 c24 0 53 2 64 4 11 2 40 6 65 9 75 9
222 57 265 86 6 4 50 28 99 54 l88 48 -26 -49 c-32 -58 -54 -85 -81 -101 -39
-22 53 -13 132 13 74 25 146 64 313 171 47 29 90 54 96 54 6 0 34 -69 62 -152z
m-731 -394 c38 -19 55 -57 54 -121 -1 -68 -4 -84 -10 -77 -6 6 -8 12 -10 44
-2 30 -36 60 -60 53 -21 -5 -21 -6 4 -29 24 -23 25 -42 3 -71 -11 -13 -58 3
-58 19 0 5 -4 7 -10 3 -6 -4 -6 -15 0 -31 6 -14 10 -28 10 -32 0 -4 -50 -7
-110 -7 l-111 0 -21 70 c-12 38 -22 94 -22 125 l-1 55 50 5 c116 12 260 9 292
-6z m711 1 c2 -2 5 -23 6 -47 3 -48 -16 -122 -43 -171 l-18 -32 -94 0 c-85 1
-94 3 -97 20 -10 67 -24 85 -35 45 -7 -26 -43 -26 -56 -1 -8 14 -6 25 10 45
24 31 20 41 -11 31 -23 -7 -49 -58 -51 -97 -1 -16 -3 -13 -9 11 -14 59 -1 187
20 201 9 5 373 1 378 -5z"/>
<path d="M694 1123 c-8 -8 -16 -24 -19 -36 -3 -12 -24 -32 -45 -45 -55 -31
-108 -79 -125 -113 -8 -15 -18 -63 -21 -107 l-6 -78 90 -67 c50 -37 93 -74 96
-82 9 -24 -11 -65 -36 -74 -18 -6 -36 -1 -78 22 -30 16 -61 34 -67 40 -9 7
-13 5 -13 -5 0 -8 19 -24 43 -36 76 -39 180 -107 191 -124 14 -22 -6 -65 -38
-79 -21 -10 -35 -5 -111 40 -94 55 -95 56 -95 41 0 -5 21 -21 47 -36 114 -65
137 -99 94 -138 -26 -24 -49 -26 -95 -9 -32 11 -41 11 -47 1 -18 -29 22 -180
56 -214 52 -52 157 -13 238 86 46 57 52 80 22 80 -21 0 -53 46 -50 72 1 13 3
29 4 35 1 10 19 23 63 45 2 0 23 -9 47 -22 38 -19 48 -20 65 -10 15 10 21 10
24 1 7 -21 76 -48 127 -50 65 -2 103 21 151 94 l37 55 98 0 c64 0 99 -4 99
-11 0 -21 62 -101 93 -120 34 -20 109 -25 149 -10 13 5 35 20 50 34 l27 25 14
-21 14 -21 34 22 c54 33 87 35 115 7 34 -34 32 -77 -7 -109 -17 -14 -35 -26
-40 -26 -18 0 -8 -22 33 -75 23 -29 59 -63 81 -75 43 -25 109 -29 134 -8 23
19 58 78 68 113 11 42 16 105 7 105 -4 0 -27 -5 -51 -11 -51 -11 -86 5 -93 44
-7 37 6 53 77 93 36 19 65 43 65 51 0 14 -3 14 -24 0 -13 -9 -54 -32 -91 -52
l-68 -36 -23 22 c-14 13 -24 34 -24 51 0 25 11 34 105 90 98 57 140 88 119 88
-5 0 -34 -15 -65 -34 -49 -29 -60 -32 -79 -23 -66 34 -51 76 53 154 l83 63 -7
72 c-5 39 -11 83 -14 98 -7 31 -58 82 -128 129 -27 19 -53 46 -60 64 l-13 32
-117 0 -117 0 -16 -54 c-9 -30 -28 -67 -44 -82 l-28 -29 -314 0 c-274 0 -317
2 -337 16 -26 19 -60 87 -61 122 0 12 -6 22 -12 23 -7 0 -60 2 -116 3 -79 2
-107 -1 -118 -11z m1234 -170 c30 -41 3 -93 -47 -93 -34 0 -53 21 -53 57 0 53
69 78 100 36z m-1120 8 c7 -1 12 -17 12 -44 0 -33 -6 -49 -25 -67 l-25 -24
-28 27 c-20 19 -28 36 -27 59 1 53 3 54 93 49z m-85 -129 l27 -28 -27 -26
c-21 -19 -38 -25 -68 -24 l-40 2 -1 44 c-1 25 1 48 3 53 2 4 21 7 42 7 28 0
44 -7 64 -28z m198 6 c1 -13 2 -30 3 -38 6 -53 -65 -64 -111 -17 l-26 25 24
25 c18 20 34 26 67 26 37 1 42 -2 43 -21z m881 -5 c50 -45 -11 -126 -68 -89
-31 21 -39 52 -20 81 19 29 60 33 88 8z m240 0 c21 -18 24 -66 6 -81 -44 -34
-100 -10 -100 43 0 49 56 72 94 38z m-1222 -140 l0 -44 -52 3 -52 3 -1 37 c-1
27 6 46 24 68 l26 29 27 -26 c22 -21 28 -36 28 -70z m1102 20 c25 -23 23 -68
-4 -87 -30 -21 -51 -20 -73 4 -51 57 20 135 77 83z m-849 -27 c84 -34 95 -163
19 -208 -67 -40 -139 -21 -171 44 -32 64 -10 131 52 162 40 19 59 20 100 2z
m643 -11 c46 -30 62 -105 33 -160 -39 -75 -155 -77 -203 -2 -37 57 -13 146 47
173 35 15 89 11 123 -11z"/>
<path d="M418 735 c-36 -20 -47 -69 -21 -103 29 -39 45 -40 32 -3 -13 36 -5
78 18 104 19 21 8 21 -29 2z"/>
<path d="M2220 746 c0 -3 7 -21 16 -40 14 -28 15 -40 5 -67 -14 -40 -10 -45
18 -22 28 23 35 61 16 90 -14 21 -55 50 -55 39z"/>
<path d="M408 568 c-40 -32 -40 -94 -1 -124 26 -19 35 -17 23 6 -17 33 -15 88
5 110 14 16 15 20 3 20 -8 0 -21 -6 -30 -12z"/>
<path d="M2234 558 c18 -26 21 -80 6 -109 -15 -26 2 -24 28 4 40 42 17 127
-34 127 -14 0 -14 -2 0 -22z"/>
<path d="M2236 395 c23 -35 26 -71 10 -110 -14 -34 -14 -35 4 -25 26 14 50 50
50 76 0 27 -33 70 -59 77 -19 5 -19 3 -5 -18z"/>
<path d="M398 397 c-41 -32 -34 -108 13 -132 l30 -16 -15 30 c-20 37 -20 68
-2 104 16 30 4 36 -26 14z"/>
<path d="M903 275 c10 -19 -22 -75 -53 -94 -39 -23 -23 -37 24 -21 50 16 70
69 40 106 -8 10 -13 14 -11 9z"/>
<path d="M1749 256 c-25 -55 24 -117 77 -99 l27 9 -30 13 c-32 13 -53 42 -56
79 -2 28 -5 28 -18 -2z"/>
</g>
</svg>
